<svg width="9" height="9" viewBox="0 0 9 9" fill="none" xmlns="http://www.w3.org/2000/svg">
<path fill-rule="evenodd" clip-rule="evenodd" d="M6.90008 1.83008C7.04918 1.83008 7.17008 1.95096 7.17008 2.10008V4.50008C7.17008 4.6492 7.04918 4.77008 6.90008 4.77008C6.75098 4.77008 6.63008 4.6492 6.63008 4.50008V2.75192L2.75191 6.63008H4.50008C4.6492 6.63008 4.77008 6.75098 4.77008 6.90008C4.77008 7.04918 4.6492 7.17008 4.50008 7.17008H2.10008C2.02847 7.17008 1.95979 7.14164 1.90916 7.091C1.85852 7.04036 1.83008 6.97166 1.83008 6.90008V4.50008C1.83008 4.35096 1.95096 4.23008 2.10008 4.23008C2.2492 4.23008 2.37008 4.35096 2.37008 4.50008V6.24824L6.24824 2.37008H4.50008C4.35096 2.37008 4.23008 2.2492 4.23008 2.10008C4.23008 1.95096 4.35096 1.83008 4.50008 1.83008H6.90008Z" fill="black"/>
</svg>
