<svg width="18" height="21" viewBox="0 0 18 21" fill="none" xmlns="http://www.w3.org/2000/svg">
<path d="M10 19.3036V20.0156C10 20.1449 9.97413 20.2729 9.92388 20.3923C9.87362 20.5118 9.79997 20.6203 9.70711 20.7117C9.61425 20.8031 9.50401 20.8756 9.38268 20.9251C9.26136 20.9745 9.13132 21 9 21C8.86868 21 8.73864 20.9745 8.61732 20.9251C8.49599 20.8756 8.38575 20.8031 8.29289 20.7117C8.20003 20.6203 8.12637 20.5118 8.07612 20.3923C8.02587 20.2729 8 20.1449 8 20.0156V19.3036C5.80103 19.0592 3.77031 18.0268 2.29493 16.4032C0.819549 14.7796 0.00266991 12.6784 0 10.5C0 10.2389 0.105357 9.98855 0.292893 9.80394C0.480429 9.61934 0.734784 9.51563 1 9.51563C1.26522 9.51563 1.51957 9.61934 1.70711 9.80394C1.89464 9.98855 2 10.2389 2 10.5C2 12.3275 2.7375 14.0802 4.05025 15.3724C5.36301 16.6646 7.14348 17.3906 9 17.3906C10.8565 17.3906 12.637 16.6646 13.9497 15.3724C15.2625 14.0802 16 12.3275 16 10.5C16 10.2389 16.1054 9.98855 16.2929 9.80394C16.4804 9.61934 16.7348 9.51563 17 9.51563C17.2652 9.51563 17.5196 9.61934 17.7071 9.80394C17.8946 9.98855 18 10.2389 18 10.5C17.9973 12.6784 17.1804 14.7796 15.7051 16.4032C14.2297 18.0268 12.199 19.0592 10 19.3036ZM4 10.8281V4.92187C4 3.61651 4.52678 2.36461 5.46447 1.44158C6.40215 0.518553 7.67392 0 9 0C10.3261 0 11.5979 0.518553 12.5355 1.44158C13.4732 2.36461 14 3.61651 14 4.92187V10.8281C14 12.1335 13.4732 13.3854 12.5355 14.3084C11.5979 15.2314 10.3261 15.75 9 15.75C7.67392 15.75 6.40215 15.2314 5.46447 14.3084C4.52678 13.3854 4 12.1335 4 10.8281ZM6 10.8281C6 11.6113 6.31607 12.3625 6.87868 12.9163C7.44129 13.4701 8.20435 13.7812 9 13.7812C9.79565 13.7812 10.5587 13.4701 11.1213 12.9163C11.6839 12.3625 12 11.6113 12 10.8281V4.92187C12 4.13866 11.6839 3.38752 11.1213 2.8337C10.5587 2.27988 9.79565 1.96875 9 1.96875C8.20435 1.96875 7.44129 2.27988 6.87868 2.8337C6.31607 3.38752 6 4.13866 6 4.92187V10.8281Z" fill="#FF6E61"/>
</svg>
